<?xml version="1.0" encoding="iso-8859-1"?>
<!-- Generator: Adobe Illustrator 18.1.1, SVG Export Plug-In . SVG Version: 6.00 Build 0)  -->
<svg version="1.1" id="Capa_1" xmlns="http://www.w3.org/2000/svg" xmlns:xlink="http://www.w3.org/1999/xlink" x="0px" y="0px"
	 viewBox="0 0 469.962 469.962" style="enable-background:new 0 0 469.962 469.962;" xml:space="preserve">
<g>
	<g>
		<path style="fill:#010002;" d="M419.304,232.221c0.772,0.333,1.447,0.78,2.146,1.203l6.08-13.941
			c-0.788-0.228-1.577-0.415-2.349-0.756c-9.315-4.064-13.567-14.908-9.51-24.215l-34.311-14.965l37.4,52.502
			C418.939,232.124,419.126,232.148,419.304,232.221z"/>
		<path style="fill:#010002;" d="M9.535,242.195l208.181,90.78L90.617,154.561l-4.715-6.617l6.617-4.715
			c4.609-3.284,5.69-9.714,2.406-14.323l-4.715-6.625l6.617-4.715l11.99-8.543l6.625-4.715l4.715,6.617
			c1.926,2.699,5.056,4.316,8.381,4.316c2.138,0,4.194-0.658,5.942-1.91c2.235-1.593,3.715-3.959,4.17-6.665
			c0.455-2.707-0.171-5.422-1.764-7.657l-4.715-6.617l6.617-4.715l11.99-8.543l0.122-0.089L91.902,53.319
			c-3.016,6.917-9.779,11.047-16.875,11.047c-2.455,0-4.95-0.496-7.348-1.536l-5.885,13.493c9.315,4.064,13.575,14.9,9.51,24.215
			c-3.016,6.917-9.779,11.047-16.875,11.047c-2.455,0-4.95-0.496-7.348-1.536l-5.885,13.493c9.315,4.064,13.575,14.9,9.51,24.215
			c-3.016,6.917-9.779,11.047-16.875,11.047c-2.455,0-4.95-0.496-7.348-1.536l-5.885,13.493c9.315,4.064,13.575,14.9,9.51,24.215
			c-3.016,6.917-9.779,11.047-16.875,11.047c-2.455,0-4.95-0.496-7.348-1.536L0,217.98C9.34,222.036,13.599,232.88,9.535,242.195z"
			/>
		<path style="fill:#010002;" d="M139.194,119.957c-3.235,2.309-6.966,3.414-10.657,3.414c-5.747,0-11.413-2.682-14.997-7.722
			l-11.99,8.535c5.893,8.275,3.967,19.761-4.308,25.662l134.959,189.445l9.169,12.868l9.161,12.859l51.657,72.515
			c3.235-2.309,6.966-3.414,10.657-3.414c5.747,0,11.413,2.682,14.997,7.722c0.488,0.683,0.837,1.414,1.219,2.138l12.388-8.828
			c-0.561-0.593-1.138-1.171-1.626-1.853c-5.893-8.275-3.967-19.761,4.308-25.662c3.235-2.309,6.966-3.414,10.657-3.414
			c5.747,0,11.413,2.682,14.997,7.722c0.488,0.683,0.837,1.414,1.219,2.138l12.388-8.828c-0.561-0.593-1.138-1.171-1.626-1.853
			c-5.893-8.275-3.967-19.761,4.308-25.654c3.235-2.309,6.966-3.414,10.657-3.414c5.747,0,11.413,2.682,14.997,7.722
			c0.488,0.683,0.837,1.414,1.219,2.138l12.388-8.828c-0.561-0.593-1.138-1.171-1.626-1.853c-5.893-8.275-3.967-19.761,4.308-25.654
			c3.235-2.309,6.966-3.414,10.657-3.414c5.747,0,11.413,2.682,14.997,7.722c0.488,0.683,0.837,1.414,1.219,2.138l12.388-8.828
			c-0.561-0.593-1.138-1.171-1.626-1.853c-5.893-8.275-3.967-19.761,4.308-25.654l-41.984-58.932l-2.91-4.081l-0.39-0.545
			l-10.835-15.209l-5.69-7.99l-41.309-57.989l-9.161-12.859l-9.169-12.868L265.057,30.291c-3.235,2.309-6.966,3.414-10.657,3.414
			c-5.747,0-11.413-2.682-14.997-7.722l-11.99,8.543c5.893,8.275,3.967,19.761-4.308,25.654c-3.235,2.309-6.966,3.414-10.657,3.414
			c-5.747,0-11.413-2.682-14.997-7.722l-11.99,8.543c2.869,4.032,3.853,8.828,3.186,13.363c-0.398,2.699-1.414,5.275-2.967,7.576
			c-1.195,1.78-2.674,3.406-4.528,4.723c-0.732,0.52-1.553,0.764-2.325,1.162c-2.658,1.374-5.471,2.26-8.332,2.26
			c-5.747,0-11.413-2.682-14.997-7.722l-11.99,8.543C149.395,102.57,147.469,114.064,139.194,119.957z"/>
	</g>
</g>
<g>
</g>
<g>
</g>
<g>
</g>
<g>
</g>
<g>
</g>
<g>
</g>
<g>
</g>
<g>
</g>
<g>
</g>
<g>
</g>
<g>
</g>
<g>
</g>
<g>
</g>
<g>
</g>
<g>
</g>
</svg>
