<?xml version="1.0" encoding="UTF-8" standalone="no"?>
<!-- Generator: Adobe Illustrator 18.1.1, SVG Export Plug-In . SVG Version: 6.00 Build 0)  -->

<svg
   xmlns:dc="http://purl.org/dc/elements/1.1/"
   xmlns:cc="http://creativecommons.org/ns#"
   xmlns:rdf="http://www.w3.org/1999/02/22-rdf-syntax-ns#"
   xmlns:svg="http://www.w3.org/2000/svg"
   xmlns="http://www.w3.org/2000/svg"
   xmlns:sodipodi="http://sodipodi.sourceforge.net/DTD/sodipodi-0.dtd"
   xmlns:inkscape="http://www.inkscape.org/namespaces/inkscape"
   version="1.1"
   id="Capa_1"
   x="0px"
   y="0px"
   viewBox="0 0 17.924 11.320001"
   xml:space="preserve"
   inkscape:version="0.91 r13725"
   sodipodi:docname="teamwork.svg"
   width="17.924"
   height="11.32"><metadata
   id="metadata3347"><rdf:RDF><cc:Work
       rdf:about=""><dc:format>image/svg+xml</dc:format><dc:type
         rdf:resource="http://purl.org/dc/dcmitype/StillImage" /><dc:title></dc:title></cc:Work></rdf:RDF></metadata><defs
   id="defs3345" /><sodipodi:namedview
   pagecolor="#ffffff"
   bordercolor="#666666"
   borderopacity="1"
   objecttolerance="10"
   gridtolerance="10"
   guidetolerance="10"
   inkscape:pageopacity="0"
   inkscape:pageshadow="2"
   inkscape:window-width="1600"
   inkscape:window-height="900"
   id="namedview3343"
   showgrid="false"
   inkscape:zoom="36.933721"
   inkscape:cx="8.9619999"
   inkscape:cy="8.2935144"
   inkscape:window-x="0"
   inkscape:window-y="0"
   inkscape:window-maximized="1"
   inkscape:current-layer="Capa_1" />
<g
   id="g3337"
   transform="translate(0,-3.2879971)">
	<g
   id="g3339">
		<path
   style="fill:#ffffff"
   d="m 17.211,10.107 c 0,0 -0.183,-0.249 -0.616,-0.415 0,0 -0.036,-0.011 -0.092,-0.029 C 16.117,9.482 15.751,9.366 15.751,9.366 15.673,9.338 15.605,9.31 15.541,9.283 15.28,9.153 15.091,9.004 15.091,9.004 c 0,0 -0.002,-0.002 -0.203,-0.203 0.361,-0.374 0.626,-0.882 0.709,-1.368 0.064,-0.066 0.129,-0.172 0.157,-0.341 0.052,-0.188 0.117,-0.517 0.002,-0.67 C 15.749,6.414 15.743,6.407 15.736,6.4 15.844,6.004 15.982,5.186 15.492,4.628 15.448,4.572 15.174,4.244 14.586,4.07 L 14.306,3.973 C 13.843,3.83 13.552,3.799 13.54,3.797 c -0.021,-0.002 -0.043,0 -0.063,0.005 -0.016,0.005 -0.071,0.019 -0.113,0.013 -0.111,-0.016 -0.277,0.041 -0.307,0.053 -0.038,0.015 -0.934,0.374 -1.205,1.208 -0.025,0.067 -0.134,0.422 0.01,1.292 -0.021,0.014 -0.04,0.032 -0.058,0.054 -0.116,0.153 -0.051,0.48 0.002,0.669 0.027,0.167 0.092,0.272 0.155,0.339 0.072,0.48 0.302,0.942 0.605,1.296 0,0 0.23,0.398 0.259,0.435 0.729,1.08 0.821,3.162 0.83,3.396 l 0.001,0.015 -0.001,0.016 c -0.012,0.728 -0.374,0.981 -0.568,1.065 -0.094,0.042 -0.192,0.079 -0.291,0.117 0.049,-0.072 0.097,-0.197 0.1,-0.418 0,0 -0.071,-3.059 -0.688,-3.972 0,0 -0.176,-0.24 -0.593,-0.399 0,0 -0.034,-0.011 -0.089,-0.028 C 11.156,8.779 10.804,8.668 10.804,8.668 10.729,8.641 10.662,8.615 10.602,8.588 10.352,8.463 10.169,8.32 10.169,8.32 c 0,0 -0.002,-0.002 -0.195,-0.196 C 10.321,7.764 10.576,7.276 10.655,6.81 10.718,6.747 10.78,6.644 10.807,6.482 10.856,6.301 10.919,5.985 10.808,5.838 10.802,5.831 10.796,5.824 10.79,5.817 10.894,5.436 11.026,4.65 10.555,4.113 10.512,4.06 10.248,3.744 9.684,3.577 L 9.414,3.485 C 8.97,3.348 8.69,3.317 8.678,3.316 8.658,3.314 8.637,3.316 8.617,3.322 8.601,3.326 8.549,3.34 8.508,3.335 8.402,3.319 8.242,3.374 8.214,3.385 8.178,3.399 7.317,3.744 7.056,4.546 7.032,4.611 6.928,4.952 7.066,5.788 7.045,5.802 7.027,5.819 7.011,5.84 6.9,5.986 6.963,6.302 7.012,6.483 7.039,6.644 7.101,6.746 7.162,6.809 7.231,7.27 7.452,7.715 7.744,8.055 L 7.661,8.182 7.659,8.174 7.656,8.191 C 7.657,8.188 7.659,8.184 7.66,8.182 l 0,10e-4 -0.005,0.008 C 7.538,8.556 6.137,8.982 6.137,8.982 5.721,9.141 5.545,9.381 5.545,9.381 4.929,10.294 4.857,13.352 4.857,13.352 4.86,13.571 4.907,13.694 4.954,13.766 4.859,13.731 4.762,13.695 4.671,13.655 4.477,13.571 4.114,13.316 4.103,12.589 l 0,-0.016 0,-0.016 C 4.112,12.323 4.205,10.243 4.92,9.181 4.959,9.127 5.087,8.967 5.323,8.802 c 0,0 0,-10e-4 -0.001,-10e-4 C 5.683,8.427 5.948,7.919 6.031,7.433 6.095,7.367 6.16,7.261 6.189,7.092 6.241,6.904 6.306,6.575 6.19,6.422 6.184,6.414 6.177,6.407 6.171,6.4 6.279,6.004 6.417,5.186 5.927,4.628 5.886,4.572 5.611,4.244 5.023,4.07 L 4.743,3.973 C 4.28,3.83 3.989,3.799 3.977,3.797 3.956,3.795 3.934,3.797 3.914,3.802 3.898,3.808 3.843,3.822 3.8,3.816 3.69,3.8 3.524,3.857 3.494,3.869 3.456,3.883 2.561,4.242 2.289,5.077 2.264,5.144 2.156,5.499 2.299,6.369 2.278,6.383 2.258,6.401 2.241,6.423 2.125,6.576 2.191,6.903 2.242,7.092 2.269,7.259 2.334,7.364 2.397,7.431 2.469,7.911 2.699,8.373 3.003,8.727 L 2.917,8.859 2.915,8.85 2.911,8.868 C 2.912,8.865 2.915,8.861 2.916,8.858 l 0,10e-4 -0.005,0.009 C 2.79,9.248 1.332,9.691 1.332,9.691 0.899,9.857 0.716,10.106 0.716,10.106 0.075,11.056 0,13.171 0,13.171 c 0.008,0.482 0.217,0.533 0.217,0.533 1.473,0.657 3.785,0.773 3.785,0.773 0.125,0.004 0.24,-0.003 0.356,-0.01 l 0.003,0.012 c 0,0 0.87,-0.045 1.881,-0.23 1.219,0.295 2.46,0.358 2.46,0.358 0.119,0.003 0.231,-0.004 0.342,-0.011 l 0.003,0.012 c 0,0 1.295,-0.066 2.538,-0.379 1.053,0.201 1.979,0.248 1.979,0.248 0.124,0.004 0.24,-0.003 0.356,-0.01 l 0.003,0.012 c 0,0 2.312,-0.117 3.785,-0.773 0,0 0.208,-0.051 0.216,-0.534 0.003,10e-4 -0.072,-2.114 -0.713,-3.065 z"
   id="path3341"
   inkscape:connector-curvature="0" />
	</g>
</g>
</svg>