<?xml version="1.0" encoding="UTF-8" standalone="no"?>
<!-- Generator: Adobe Illustrator 18.1.1, SVG Export Plug-In . SVG Version: 6.00 Build 0)  -->

<svg
   xmlns:dc="http://purl.org/dc/elements/1.1/"
   xmlns:cc="http://creativecommons.org/ns#"
   xmlns:rdf="http://www.w3.org/1999/02/22-rdf-syntax-ns#"
   xmlns:svg="http://www.w3.org/2000/svg"
   xmlns="http://www.w3.org/2000/svg"
   xmlns:sodipodi="http://sodipodi.sourceforge.net/DTD/sodipodi-0.dtd"
   xmlns:inkscape="http://www.inkscape.org/namespaces/inkscape"
   version="1.1"
   id="Capa_1"
   x="0px"
   y="0px"
   viewBox="0 0 469.96 417.99601"
   xml:space="preserve"
   inkscape:version="0.91 r13725"
   sodipodi:docname="ticket.svg"
   width="469.95999"
   height="417.996"><metadata
   id="metadata3394"><rdf:RDF><cc:Work
       rdf:about=""><dc:format>image/svg+xml</dc:format><dc:type
         rdf:resource="http://purl.org/dc/dcmitype/StillImage" /><dc:title></dc:title></cc:Work></rdf:RDF></metadata><defs
   id="defs3392" /><sodipodi:namedview
   pagecolor="#ffffff"
   bordercolor="#666666"
   borderopacity="1"
   objecttolerance="10"
   gridtolerance="10"
   guidetolerance="10"
   inkscape:pageopacity="0"
   inkscape:pageshadow="2"
   inkscape:window-width="1600"
   inkscape:window-height="837"
   id="namedview3390"
   showgrid="false"
   fit-margin-top="0"
   fit-margin-left="0"
   fit-margin-right="0"
   fit-margin-bottom="0"
   inkscape:zoom="0.50216825"
   inkscape:cx="234.981"
   inkscape:cy="208.99799"
   inkscape:window-x="-8"
   inkscape:window-y="-8"
   inkscape:window-maximized="1"
   inkscape:current-layer="Capa_1" />
<g
   id="g3350"
   transform="translate(0,-25.983)">
	<g
   id="g3352">
		<path
   style="fill:#ffffff"
   d="m 419.304,232.221 c 0.772,0.333 1.447,0.78 2.146,1.203 l 6.08,-13.941 c -0.788,-0.228 -1.577,-0.415 -2.349,-0.756 -9.315,-4.064 -13.567,-14.908 -9.51,-24.215 l -34.311,-14.965 37.4,52.502 c 0.179,0.075 0.366,0.099 0.544,0.172 z"
   id="path3354"
   inkscape:connector-curvature="0" />
		<path
   style="fill:#ffffff"
   d="m 9.535,242.195 208.181,90.78 -127.099,-178.414 -4.715,-6.617 6.617,-4.715 c 4.609,-3.284 5.69,-9.714 2.406,-14.323 l -4.715,-6.625 6.617,-4.715 11.99,-8.543 6.625,-4.715 4.715,6.617 c 1.926,2.699 5.056,4.316 8.381,4.316 2.138,0 4.194,-0.658 5.942,-1.91 2.235,-1.593 3.715,-3.959 4.17,-6.665 0.455,-2.707 -0.171,-5.422 -1.764,-7.657 l -4.715,-6.617 6.617,-4.715 11.99,-8.543 0.122,-0.089 -58.998,-25.726 c -3.016,6.917 -9.779,11.047 -16.875,11.047 -2.455,0 -4.95,-0.496 -7.348,-1.536 l -5.885,13.493 c 9.315,4.064 13.575,14.9 9.51,24.215 -3.016,6.917 -9.779,11.047 -16.875,11.047 -2.455,0 -4.95,-0.496 -7.348,-1.536 l -5.885,13.493 c 9.315,4.064 13.575,14.9 9.51,24.215 -3.016,6.917 -9.779,11.047 -16.875,11.047 -2.455,0 -4.95,-0.496 -7.348,-1.536 l -5.885,13.493 c 9.315,4.064 13.575,14.9 9.51,24.215 -3.016,6.917 -9.779,11.047 -16.875,11.047 -2.455,0 -4.95,-0.496 -7.348,-1.536 L 0,217.98 c 9.34,4.056 13.599,14.9 9.535,24.215 z"
   id="path3356"
   inkscape:connector-curvature="0" />
		<path
   style="fill:#ffffff"
   d="m 139.194,119.957 c -3.235,2.309 -6.966,3.414 -10.657,3.414 -5.747,0 -11.413,-2.682 -14.997,-7.722 l -11.99,8.535 c 5.893,8.275 3.967,19.761 -4.308,25.662 l 134.959,189.445 9.169,12.868 9.161,12.859 51.657,72.515 c 3.235,-2.309 6.966,-3.414 10.657,-3.414 5.747,0 11.413,2.682 14.997,7.722 0.488,0.683 0.837,1.414 1.219,2.138 l 12.388,-8.828 c -0.561,-0.593 -1.138,-1.171 -1.626,-1.853 -5.893,-8.275 -3.967,-19.761 4.308,-25.662 3.235,-2.309 6.966,-3.414 10.657,-3.414 5.747,0 11.413,2.682 14.997,7.722 0.488,0.683 0.837,1.414 1.219,2.138 l 12.388,-8.828 c -0.561,-0.593 -1.138,-1.171 -1.626,-1.853 -5.893,-8.275 -3.967,-19.761 4.308,-25.654 3.235,-2.309 6.966,-3.414 10.657,-3.414 5.747,0 11.413,2.682 14.997,7.722 0.488,0.683 0.837,1.414 1.219,2.138 l 12.388,-8.828 c -0.561,-0.593 -1.138,-1.171 -1.626,-1.853 -5.893,-8.275 -3.967,-19.761 4.308,-25.654 3.235,-2.309 6.966,-3.414 10.657,-3.414 5.747,0 11.413,2.682 14.997,7.722 0.488,0.683 0.837,1.414 1.219,2.138 l 12.388,-8.828 c -0.561,-0.593 -1.138,-1.171 -1.626,-1.853 -5.893,-8.275 -3.967,-19.761 4.308,-25.654 l -41.984,-58.932 -2.91,-4.081 -0.39,-0.545 -10.835,-15.209 -5.69,-7.99 -41.309,-57.989 -9.161,-12.859 -9.169,-12.868 -83.455,-117.205 c -3.235,2.309 -6.966,3.414 -10.657,3.414 -5.747,0 -11.413,-2.682 -14.997,-7.722 l -11.99,8.543 c 5.893,8.275 3.967,19.761 -4.308,25.654 -3.235,2.309 -6.966,3.414 -10.657,3.414 -5.747,0 -11.413,-2.682 -14.997,-7.722 l -11.99,8.543 c 2.869,4.032 3.853,8.828 3.186,13.363 -0.398,2.699 -1.414,5.275 -2.967,7.576 -1.195,1.78 -2.674,3.406 -4.528,4.723 -0.732,0.52 -1.553,0.764 -2.325,1.162 -2.658,1.374 -5.471,2.26 -8.332,2.26 -5.747,0 -11.413,-2.682 -14.997,-7.722 l -11.99,8.543 c 5.887,8.25 3.961,19.744 -4.314,25.637 z"
   id="path3358"
   inkscape:connector-curvature="0" />
	</g>
</g>
<g
   id="g3360"
   transform="translate(0,-25.983)">
</g>
<g
   id="g3362"
   transform="translate(0,-25.983)">
</g>
<g
   id="g3364"
   transform="translate(0,-25.983)">
</g>
<g
   id="g3366"
   transform="translate(0,-25.983)">
</g>
<g
   id="g3368"
   transform="translate(0,-25.983)">
</g>
<g
   id="g3370"
   transform="translate(0,-25.983)">
</g>
<g
   id="g3372"
   transform="translate(0,-25.983)">
</g>
<g
   id="g3374"
   transform="translate(0,-25.983)">
</g>
<g
   id="g3376"
   transform="translate(0,-25.983)">
</g>
<g
   id="g3378"
   transform="translate(0,-25.983)">
</g>
<g
   id="g3380"
   transform="translate(0,-25.983)">
</g>
<g
   id="g3382"
   transform="translate(0,-25.983)">
</g>
<g
   id="g3384"
   transform="translate(0,-25.983)">
</g>
<g
   id="g3386"
   transform="translate(0,-25.983)">
</g>
<g
   id="g3388"
   transform="translate(0,-25.983)">
</g>
</svg>